HIERARCHY
ROOT Hips
{
  OFFSET 13.9192 87.0099 7.45665
  CHANNELS 6 Xposition Yposition Zposition Zrotation Xrotation Yrotation
  JOINT RightUpLeg
  {
    OFFSET -9.25892 -1.51126 0.0103963
    CHANNELS 3 Zrotation Xrotation Yrotation
    JOINT RightLeg
    {
      OFFSET -0.0493687 -41.9019 0.103893
      CHANNELS 3 Zrotation Xrotation Yrotation
      JOINT RightFoot
      {
        OFFSET -1.32222 -41.6903 -0.651221
        CHANNELS 3 Zrotation Xrotation Yrotation
        End Site
        {
          OFFSET 0 -7.69 17.5
        }
      }
    }
  }
  JOINT LeftUpLeg
  {
    OFFSET 9.27814 -1.57439 0.0532125
    CHANNELS 3 Zrotation Xrotation Yrotation
    JOINT LeftLeg
    {
      OFFSET 0.0812204 -41.881 0.0464493
      CHANNELS 3 Zrotation Xrotation Yrotation
      JOINT LeftFoot
      {
        OFFSET -0.0110097 -42.3775 0.673629
        CHANNELS 3 Zrotation Xrotation Yrotation
        End Site
        {
          OFFSET 0 -7.69 17.5
        }
      }
    }
  }
  JOINT Spine
  {
    OFFSET 0.0235844 14.3019 0.0112981
    CHANNELS 3 Zrotation Xrotation Yrotation
    JOINT Spine1
    {
      OFFSET 0.0175769 9.71285 0.00895779
      CHANNELS 3 Zrotation Xrotation Yrotation
      JOINT Spine2
      {
        OFFSET 0.0285364 10.1117 0.00103808
        CHANNELS 3 Zrotation Xrotation Yrotation
        JOINT Spine3
        {
          OFFSET 0.0259409 9.72657 0.0104237
          CHANNELS 3 Zrotation Xrotation Yrotation
          JOINT Neck
          {
            OFFSET -0.0111787 10.3773 0.0255796
            CHANNELS 3 Zrotation Xrotation Yrotation
            JOINT Head
            {
              OFFSET -0.00267722 9.48908 0.0510269
              CHANNELS 3 Zrotation Xrotation Yrotation
              End Site
              {
                OFFSET 0 15.95 0
              }
            }
          }
          JOINT RightShoulder
          {
            OFFSET -3.1909 6.94591 0.0199124
            CHANNELS 3 Zrotation Xrotation Yrotation
            JOINT RightArm
            {
              OFFSET -12.7524 0.0197095 0.0110528
              CHANNELS 3 Zrotation Xrotation Yrotation
              JOINT RightForeArm
              {
                OFFSET -26.4891 -0.0606575 0.0254635
                CHANNELS 3 Zrotation Xrotation Yrotation
                JOINT RightHand
                {
                  OFFSET -26.017 -0.0465962 -0.00264686
                  CHANNELS 3 Zrotation Xrotation Yrotation
                  JOINT RightHandThumb1
                  {
                    OFFSET -2.48905 0.190105 3.12053
                    CHANNELS 3 Zrotation Xrotation Yrotation
                    JOINT RightHandThumb2
                    {
                      OFFSET -3.68274 0 0
                      CHANNELS 3 Zrotation Xrotation Yrotation
                      JOINT RightHandThumb3
                      {
                        OFFSET -2.55832 0 0
                        CHANNELS 3 Zrotation Xrotation Yrotation
                        End Site
                        {
                          OFFSET -2.194 0 0
                        }
                      }
                    }
                  }
                  JOINT RightInHandIndex
                  {
                    OFFSET -3.22368 0.508421 1.97842
                    CHANNELS 3 Zrotation Xrotation Yrotation
                    JOINT RightHandIndex1
                    {
                      OFFSET -5.21684 -0.091368 0.999158
                      CHANNELS 3 Zrotation Xrotation Yrotation
                      JOINT RightHandIndex2
                      {
                        OFFSET -3.61937 0 0
                        CHANNELS 3 Zrotation Xrotation Yrotation
                        JOINT RightHandIndex3
                        {
                          OFFSET -2.0521 0 0
                          CHANNELS 3 Zrotation Xrotation Yrotation
                          End Site
                          {
                            OFFSET -1.805 0 0
                          }
                        }
                      }
                    }
                  }
                  JOINT RightInHandMiddle
                  {
                    OFFSET -3.38211 0.517263 0.756737
                    CHANNELS 3 Zrotation Xrotation Yrotation
                    JOINT RightHandMiddle1
                    {
                      OFFSET -5.17411 -0.084 0.313895
                      CHANNELS 3 Zrotation Xrotation Yrotation
                      JOINT RightHandMiddle2
                      {
                        OFFSET -3.94947 0 0
                        CHANNELS 3 Zrotation Xrotation Yrotation
                        JOINT RightHandMiddle3
                        {
                          OFFSET -2.47579 0 0
                          CHANNELS 3 Zrotation Xrotation Yrotation
                          End Site
                          {
                            OFFSET -1.975 0 0
                          }
                        }
                      }
                    }
                  }
                  JOINT RightInHandRing
                  {
                    OFFSET -3.36516 0.537895 -0.128947
                    CHANNELS 3 Zrotation Xrotation Yrotation
                    JOINT RightHandRing1
                    {
                      OFFSET -4.63474 -0.022105 -0.478947
                      CHANNELS 3 Zrotation Xrotation Yrotation
                      JOINT RightHandRing2
                      {
                        OFFSET -3.44238 0 0
                        CHANNELS 3 Zrotation Xrotation Yrotation
                        JOINT RightHandRing3
                        {
                          OFFSET -2.3881 0 0
                          CHANNELS 3 Zrotation Xrotation Yrotation
                          End Site
                          {
                            OFFSET -1.857 0 0
                          }
                        }
                      }
                    }
                  }
                  JOINT RightInHandPinky
                  {
                    OFFSET -3.16105 0.469368 -1.20179
                    CHANNELS 3 Zrotation Xrotation Yrotation
                    JOINT RightHandPinky1
                    {
                      OFFSET -4.14105 -0.022105 -1.09053
                      CHANNELS 3 Zrotation Xrotation Yrotation
                      JOINT RightHandPinky2
                      {
                        OFFSET -2.75653 0 0
                        CHANNELS 3 Zrotation Xrotation Yrotation
                        JOINT RightHandPinky3
                        {
                          OFFSET -1.74189 0 0
                          CHANNELS 3 Zrotation Xrotation Yrotation
                          End Site
                          {
                            OFFSET -1.645 0 0
                          }
                        }
                      }
                    }
                  }
                }
              }
            }
          }
          JOINT LeftShoulder
          {
            OFFSET 3.2161 6.92611 -0.00186679
            CHANNELS 3 Zrotation Xrotation Yrotation
            JOINT LeftArm
            {
              OFFSET 12.7484 -0.0283569 -0.0302446
              CHANNELS 3 Zrotation Xrotation Yrotation
              JOINT LeftForeArm
              {
                OFFSET 26.4766 -0.0880322 -0.0033192
                CHANNELS 3 Zrotation Xrotation Yrotation
                JOINT LeftHand
                {
                  OFFSET 26.0079 -0.0456134 -0.0735001
                  CHANNELS 3 Zrotation Xrotation Yrotation
                  JOINT LeftHandThumb1
                  {
                    OFFSET 2.48905 0.190105 3.12053
                    CHANNELS 3 Zrotation Xrotation Yrotation
                    JOINT LeftHandThumb2
                    {
                      OFFSET 3.68274 0 0
                      CHANNELS 3 Zrotation Xrotation Yrotation
                      JOINT LeftHandThumb3
                      {
                        OFFSET 2.55832 0 0
                        CHANNELS 3 Zrotation Xrotation Yrotation
                        End Site
                        {
                          OFFSET 2.194 0 0
                        }
                      }
                    }
                  }
                  JOINT LeftInHandIndex
                  {
                    OFFSET 3.22368 0.508421 1.97842
                    CHANNELS 3 Zrotation Xrotation Yrotation
                    JOINT LeftHandIndex1
                    {
                      OFFSET 5.21684 -0.091368 0.999158
                      CHANNELS 3 Zrotation Xrotation Yrotation
                      JOINT LeftHandIndex2
                      {
                        OFFSET 3.61937 0 0
                        CHANNELS 3 Zrotation Xrotation Yrotation
                        JOINT LeftHandIndex3
                        {
                          OFFSET 2.0521 0 0
                          CHANNELS 3 Zrotation Xrotation Yrotation
                          End Site
                          {
                            OFFSET 1.805 0 0
                          }
                        }
                      }
                    }
                  }
                  JOINT LeftInHandMiddle
                  {
                    OFFSET 3.38211 0.517263 0.756737
                    CHANNELS 3 Zrotation Xrotation Yrotation
                    JOINT LeftHandMiddle1
                    {
                      OFFSET 5.17411 -0.084 0.313895
                      CHANNELS 3 Zrotation Xrotation Yrotation
                      JOINT LeftHandMiddle2
                      {
                        OFFSET 3.94947 0 0
                        CHANNELS 3 Zrotation Xrotation Yrotation
                        JOINT LeftHandMiddle3
                        {
                          OFFSET 2.47579 0 0
                          CHANNELS 3 Zrotation Xrotation Yrotation
                          End Site
                          {
                            OFFSET 1.975 0 0
                          }
                        }
                      }
                    }
                  }
                  JOINT LeftInHandRing
                  {
                    OFFSET 3.36516 0.537895 -0.128947
                    CHANNELS 3 Zrotation Xrotation Yrotation
                    JOINT LeftHandRing1
                    {
                      OFFSET 4.63474 -0.022105 -0.478947
                      CHANNELS 3 Zrotation Xrotation Yrotation
                      JOINT LeftHandRing2
                      {
                        OFFSET 3.44238 0 0
                        CHANNELS 3 Zrotation Xrotation Yrotation
                        JOINT LeftHandRing3
                        {
                          OFFSET 2.3881 0 0
                          CHANNELS 3 Zrotation Xrotation Yrotation
                          End Site
                          {
                            OFFSET 1.857 0 0
                          }
                        }
                      }
                    }
                  }
                  JOINT LeftInHandPinky
                  {
                    OFFSET 3.16105 0.469368 -1.20179
                    CHANNELS 3 Zrotation Xrotation Yrotation
                    JOINT LeftHandPinky1
                    {
                      OFFSET 4.14105 -0.022105 -1.09053
                      CHANNELS 3 Zrotation Xrotation Yrotation
                      JOINT LeftHandPinky2
                      {
                        OFFSET 2.75653 0 0
                        CHANNELS 3 Zrotation Xrotation Yrotation
                        JOINT LeftHandPinky3
                        {
                          OFFSET 1.74189 0 0
                          CHANNELS 3 Zrotation Xrotation Yrotation
                          End Site
                          {
                            OFFSET 1.645 0 0
                          }
                        }
                      }
                    }
                  }
                }
              }
            }
          }
        }
      }
    }
  }
}
MOTION
Frames: 3
Frame Time: 0.00833333
4.499608581903568165e+02 -3.594038409982373925e-03 2.856198073969616353e-03 -5.576696089166868070e-02 -1.791662299480363540e-02 -1.012295760619065926e-01 1.359194608105183770e-02 5.242342413640263543e-02 -6.704035857664686349e-03 -4.179290857659581637e-02 -3.404174247571700035e-02 4.836116849736293855e-02 -4.306904158037250241e-03 3.901435019012058913e-02 6.628186086099836782e-02 -6.513064798039674974e-03 1.128663028517638139e-01 5.195407769195549419e-02 -7.171476003531096488e-02 -3.108744842906752126e-02 2.269136860982570378e-02 -6.383829871139987990e-03 -1.716213604779440530e-02 2.189851512192943911e-02 -1.209169893884342456e-01 5.316849073431515610e-02 3.888426744148456016e-01 -2.148281718446546501e-02 1.979853958953625356e-02 9.508486142116219508e-02 -3.783486048771576155e-02 3.946687795412950200e-02 1.535700323591384364e-01 1.215536466667783283e-02 -6.152358272798773070e-04 -2.653159776939087097e-02 6.796745471527446125e-02 1.370177290460730841e-02 -2.891644592122534219e-01 1.867179904462786810e-01 -8.975757210206389280e-02 -2.978985894674671675e-01 1.368048869888094654e-01 -2.169495833543967078e-01 -3.138822256130286426e-01 -3.542844107195236569e-01 -8.944855367293919057e-02 -9.730358267654298787e-02 4.090894828082727308e-01 -1.636736793716704774e+00 1.026061359874960610e+00 -8.869340896247355222e-01 8.881970963473296843e-01 9.446437841999207885e-01 0.000000000000000000e+00 0.000000000000000000e+00 0.000000000000000000e+00 -3.314789723857376019e-15 -7.638305886617889834e-15 0.000000000000000000e+00 -4.494635700401403182e-15 1.437380527757477891e-15 0.000000000000000000e+00 -2.512350135963610818e-15 7.491683572884912879e-15 -7.129029747867851112e-17 0.000000000000000000e+00 0.000000000000000000e+00 0.000000000000000000e+00 0.000000000000000000e+00 -5.546799550801874947e-16 -8.659326937958207881e-15 0.000000000000000000e+00 6.266359480624020157e-16 -1.838254022083646617e-15 -2.512350135963610818e-15 7.491683572884912879e-15 -7.129029747867851112e-17 0.000000000000000000e+00 4.363664134377948897e-15 1.179642205353431746e-15 0.000000000000000000e+00 1.801546257783078536e-15 -4.989413061476405441e-15 0.000000000000000000e+00 -3.587684199631748376e-16 -8.703146297442683441e-15 -2.512350135963610818e-15 7.491683572884912879e-15 -7.129029747867851112e-17 0.000000000000000000e+00 0.000000000000000000e+00 0.000000000000000000e+00 0.000000000000000000e+00 -2.329781458989481307e-15 -9.378980760467315548e-15 0.000000000000000000e+00 -6.285873413043870388e-16 -5.117831407908386113e-15 -2.512350135963610818e-15 7.491683572884912879e-15 -7.129029747867851112e-17 0.000000000000000000e+00 0.000000000000000000e+00 0.000000000000000000e+00 0.000000000000000000e+00 -4.200258170149803575e-15 -7.897852467517099632e-15 0.000000000000000000e+00 -5.058113834989118616e-16 -5.644491547661294896e-15 -4.953849150193902207e-02 -6.809142413231698832e-02 -3.770455293383397910e-01 4.867892884858536773e-01 7.618109976668615418e-03 -5.629644195049491318e-01 -1.218488303670515194e+00 -2.039803481579199884e-01 -1.648218220880463214e+00 -5.721126620338106150e-01 -2.876320578459184429e-01 -4.674604575609183632e-01 0.000000000000000000e+00 0.000000000000000000e+00 0.000000000000000000e+00 1.628142603779720680e-14 3.782161628218014897e-15 0.000000000000000000e+00 9.037542431872158700e-15 -1.205242204439904058e-15 0.000000000000000000e+00 -4.009318320893065234e-15 1.073494833631937236e-15 5.264133901020619460e-15 0.000000000000000000e+00 0.000000000000000000e+00 0.000000000000000000e+00 0.000000000000000000e+00 -8.343911417042692277e-16 -2.744560416603378422e-15 0.000000000000000000e+00 7.770879414180995017e-15 -3.422206304156994761e-15 -4.009318320893065234e-15 1.073494833631937236e-15 5.264133901020619460e-15 0.000000000000000000e+00 2.036468149764618968e-15 9.726333033461575952e-15 0.000000000000000000e+00 -1.644524937184978107e-16 -7.425486406039434334e-17 0.000000000000000000e+00 -1.701372010806277088e-15 -4.622138070536559675e-15 -4.009318320893065234e-15 1.073494833631937236e-15 5.264133901020619460e-15 0.000000000000000000e+00 0.000000000000000000e+00 0.000000000000000000e+00 0.000000000000000000e+00 -2.416928271960521619e-15 2.825795231562937726e-15 0.000000000000000000e+00 1.341435997244855061e-15 -5.391136621106923403e-15 -4.009318320893065234e-15 1.073494833631937236e-15 5.264133901020619460e-15 0.000000000000000000e+00 0.000000000000000000e+00 0.000000000000000000e+00 0.000000000000000000e+00 -5.277772170520387255e-15 -6.392851040989067932e-17 0.000000000000000000e+00 1.583703583911195860e-15 6.651496287008135352e-15
4.499689976804325511e+02 -2.104149228598267089e-03 -7.002656572463485368e-04 -4.397657558312990239e-02 -6.127059782170032540e-03 -6.662743126044080866e-02 -2.481851048228101569e-02 4.279399254331751196e-02 -5.272348113905576256e-02 -3.500962174224261925e-02 -3.073717953313130288e-02 3.219665946488693004e-02 -2.411940586191878896e-03 3.093084728488097734e-02 6.600357235391078603e-02 -9.552150036666833335e-03 9.904040991676160699e-02 4.344044776775016735e-03 -8.708159489922549790e-02 -3.760848524072491622e-02 5.371416482067679909e-02 -3.872718545134019776e-03 -7.658215761853613517e-03 6.659899436501352799e-03 -8.102839904356651246e-02 4.679279437010434861e-02 3.232705501890728583e-01 -1.345306712690177292e-02 1.750577684253277339e-02 8.009303753846694351e-02 -2.390852496616338585e-02 3.318345287658144849e-02 1.295633193086788149e-01 8.414425263037591390e-03 1.763883016165031931e-03 -2.294762773123491806e-02 7.020366176826342564e-02 1.180278657144426084e-02 -2.671063739071089516e-01 1.121201330586142075e-01 -4.657052423844759703e-02 -2.367324305620243097e-01 1.200707088666515127e-01 -1.932974895562674378e-01 -3.708137563318879559e-01 -2.967945493923505595e-01 1.172487276570817888e-01 -3.620964522960919835e-02 1.962452970740772573e-01 -1.610347412169593539e+00 7.812173425150800155e-01 -8.093095048369954858e-01 4.542402724613525677e-01 1.498375606289164885e+00 0.000000000000000000e+00 0.000000000000000000e+00 0.000000000000000000e+00 -2.801388014907679127e-15 -4.990776177916943470e-15 0.000000000000000000e+00 -2.202655422508329007e-15 9.442136023240926519e-16 0.000000000000000000e+00 -2.934634444262233329e-15 4.770550225006359937e-15 6.828890126498689973e-17 0.000000000000000000e+00 0.000000000000000000e+00 0.000000000000000000e+00 0.000000000000000000e+00 1.003743312782021729e-16 -6.381955660419812904e-15 0.000000000000000000e+00 6.739931349293367590e-16 -2.676811861340907211e-15 -2.934634444262233329e-15 4.770550225006359937e-15 6.828890126498689973e-17 0.000000000000000000e+00 1.752604479010694965e-15 1.169421587636983220e-15 0.000000000000000000e+00 1.452577864071491603e-15 -4.704829894485484793e-15 0.000000000000000000e+00 1.434376588530893387e-17 -8.506511228416699391e-15 -2.934634444262233329e-15 4.770550225006359937e-15 6.828890126498689973e-17 0.000000000000000000e+00 0.000000000000000000e+00 0.000000000000000000e+00 0.000000000000000000e+00 -2.202860214862188786e-15 -8.069662154002126324e-15 0.000000000000000000e+00 -4.034506697494194241e-16 -6.666110142694256345e-15 -2.934634444262233329e-15 4.770550225006359937e-15 6.828890126498689973e-17 0.000000000000000000e+00 0.000000000000000000e+00 0.000000000000000000e+00 0.000000000000000000e+00 -3.229019839016389638e-15 -6.519828008993670303e-15 0.000000000000000000e+00 8.133198231720162114e-17 -4.252033909640014248e-15 -6.521030173550843023e-02 -3.581636467874815821e-02 -3.346927040789747232e-01 3.972591182770829343e-01 8.018195762080804201e-02 -4.269532783435279755e-01 -7.494401134879862258e-01 -1.081163016895537038e-01 -1.107753927306368791e+00 -2.165392509330455351e+00 -6.345328673469955438e-01 -2.020461046044545572e+00 0.000000000000000000e+00 0.000000000000000000e+00 0.000000000000000000e+00 1.274682269719937046e-14 4.274568651608794849e-15 0.000000000000000000e+00 6.235006080113200983e-15 -2.774858286967466729e-16 0.000000000000000000e+00 -3.469353894181671146e-15 2.266314250262424307e-16 3.685294459216143984e-15 0.000000000000000000e+00 0.000000000000000000e+00 0.000000000000000000e+00 0.000000000000000000e+00 -8.802637247597129185e-16 8.324642959209824237e-16 0.000000000000000000e+00 6.136143142339247678e-15 -2.242096625374936224e-15 -3.469353894181671146e-15 2.266314250262424307e-16 3.685294459216143984e-15 0.000000000000000000e+00 1.859819689965162297e-15 1.026812955503363067e-14 0.000000000000000000e+00 -1.102654362054965583e-15 3.100568214598712510e-15 0.000000000000000000e+00 -1.762770625071613515e-15 -3.987363548212126752e-15 -3.469353894181671146e-15 2.266314250262424307e-16 3.685294459216143984e-15 0.000000000000000000e+00 0.000000000000000000e+00 0.000000000000000000e+00 0.000000000000000000e+00 -1.664324728633950407e-15 5.449851296397184445e-15 0.000000000000000000e+00 1.032007815374231649e-15 -3.565380445339732695e-15 -3.469353894181671146e-15 2.266314250262424307e-16 3.685294459216143984e-15 0.000000000000000000e+00 0.000000000000000000e+00 0.000000000000000000e+00 0.000000000000000000e+00 -4.605899934709841351e-15 1.247854710767784606e-15 0.000000000000000000e+00 1.301488236935390650e-15 5.015746673370988929e-15
4.499755146553007421e+02 -3.116598813386086938e-04 -4.323816644883901779e-03 -3.350722893822042497e-02 2.668937486190984740e-03 -3.899163861895110772e-02 -5.222911427651232702e-02 3.549954614783222551e-02 -8.604197248457844116e-02 -3.163458521467676920e-02 -3.018646365769507567e-02 1.837925354245364962e-02 -3.526048912916446157e-04 2.622927513238006852e-02 6.674095510892713579e-02 -6.773704115892236095e-03 8.883125384078270625e-02 -3.471283293070349246e-02 -1.050423401693465486e-01 -4.328344826362016950e-02 8.729061838902675563e-02 -1.592605725494051962e-03 9.215361172948311093e-04 -7.734866146317014024e-03 -4.927040225138210744e-02 4.003731381110223198e-02 2.716987464662796725e-01 -7.054673398867098225e-03 1.551672486974753525e-02 6.829458759410876600e-02 -1.282828036755342613e-02 2.783248251308614515e-02 1.107603050727103411e-01 5.475686482248650309e-03 3.769074903475473116e-03 -2.028792021676562723e-02 7.208388887470015827e-02 1.038787883908122954e-02 -2.503094762506582471e-01 5.371134558557962707e-02 -1.023902071621580513e-02 -1.892805764107247657e-01 1.090097521149533122e-01 -1.793773293453767292e-01 -4.314074442511455776e-01 -2.617232137347475507e-01 2.838851817213426387e-01 2.405466791586572881e-02 -3.381414664964096928e-03 -1.598363672265257884e+00 5.775275217650048809e-01 -7.667261858142703224e-01 8.602960326039239825e-02 2.045761287411360652e+00 0.000000000000000000e+00 0.000000000000000000e+00 0.000000000000000000e+00 -2.484597787113712354e-15 -2.585805516811809701e-15 0.000000000000000000e+00 3.526663671220035246e-16 5.538723885217402660e-16 0.000000000000000000e+00 -3.392987849662460550e-15 2.201610128919932936e-15 2.280780818645066222e-16 0.000000000000000000e+00 0.000000000000000000e+00 0.000000000000000000e+00 0.000000000000000000e+00 6.321346864772734134e-16 -4.326538680298788693e-15 0.000000000000000000e+00 7.663031090528577828e-16 -3.340924441629229154e-15 -3.392987849662460550e-15 2.201610128919932936e-15 2.280780818645066222e-16 0.000000000000000000e+00 -8.433976325635339605e-16 1.114083618784150469e-15 0.000000000000000000e+00 9.101090204263934107e-16 -4.692298231341689566e-15 0.000000000000000000e+00 4.059456270927770515e-16 -8.415663774986405634e-15 -3.392987849662460550e-15 2.201610128919932936e-15 2.280780818645066222e-16 0.000000000000000000e+00 0.000000000000000000e+00 0.000000000000000000e+00 0.000000000000000000e+00 -2.114256643276939617e-15 -6.903632031479640520e-15 0.000000000000000000e+00 -2.055024838491344814e-16 -8.268447456818818360e-15 -3.392987849662460550e-15 2.201610128919932936e-15 2.280780818645066222e-16 0.000000000000000000e+00 0.000000000000000000e+00 0.000000000000000000e+00 0.000000000000000000e+00 -2.341090629247092840e-15 -5.700377069237921201e-15 0.000000000000000000e+00 7.830249670803164771e-16 -2.992576313146552448e-15 -7.337123078990059888e-02 -1.149793128635959172e-02 -3.003788544135985172e-01 3.176830588660162769e-01 1.361932852291079799e-01 -3.253682112108571833e-01 -3.011045264099279639e-01 -1.237093440742177697e-02 -6.107924576715337839e-01 -3.631543214914259465e+00 -9.039777102795710784e-01 -3.453113593749371546e+00 0.000000000000000000e+00 0.000000000000000000e+00 0.000000000000000000e+00 9.261342142468817059e-15 4.748106000804072991e-15 0.000000000000000000e+00 3.306431375785873999e-15 3.541103639723569460e-16 0.000000000000000000e+00 -2.924046861130114272e-15 -3.310115533807813890e-16 2.169128911364607493e-15 0.000000000000000000e+00 0.000000000000000000e+00 0.000000000000000000e+00 0.000000000000000000e+00 -6.439346722594341455e-16 4.369113460514890183e-15 0.000000000000000000e+00 4.586622936554977998e-15 -9.833767841604204700e-16 -2.924046861130114272e-15 -3.310115533807813890e-16 2.169128911364607493e-15 0.000000000000000000e+00 1.546935679684939640e-15 1.093926233548641929e-14 0.000000000000000000e+00 -2.102358059703120938e-15 5.840324180520324218e-15 0.000000000000000000e+00 -1.790411481744979617e-15 -3.594722724455971215e-15 -2.924046861130114272e-15 -3.310115533807813890e-16 2.169128911364607493e-15 0.000000000000000000e+00 0.000000000000000000e+00 0.000000000000000000e+00 0.000000000000000000e+00 -7.685309116561804570e-16 8.041872905124503676e-15 0.000000000000000000e+00 6.443544659501759522e-16 -1.504075175072812905e-15 -2.924046861130114272e-15 -3.310115533807813890e-16 2.169128911364607493e-15 0.000000000000000000e+00 0.000000000000000000e+00 0.000000000000000000e+00 0.000000000000000000e+00 -4.176995373196491877e-15 2.445820817452685920e-15 0.000000000000000000e+00 8.127906856228425785e-16 3.447682658703517712e-15
